<svg width="34" height="34" viewBox="0 0 34 34" fill="none" xmlns="http://www.w3.org/2000/svg">
<path d="M17 33.5C26.1127 33.5 33.5 26.1127 33.5 17C33.5 7.8873 26.1127 0.5 17 0.5M17 33.5C7.8873 33.5 0.5 26.1127 0.5 17C0.5 7.8873 7.8873 0.5 17 0.5M17 33.5C21.5563 33.5 25.25 29.8063 25.25 25.25C25.25 20.6937 21.5563 17 17 17M17 33.5C12.4437 33.5 8.75 29.8063 8.75 25.25C8.75 20.6937 12.4437 17 17 17M17 0.5C12.4437 0.5 8.75 4.19365 8.75 8.75C8.75 13.3063 12.4437 17 17 17M17 0.5C21.5563 0.5 25.25 4.19365 25.25 8.75C25.25 13.3063 21.5563 17 17 17M25.25 17C25.25 21.5563 21.5563 25.25 17 25.25C12.4437 25.25 8.75 21.5563 8.75 17C8.75 12.4437 12.4437 8.75 17 8.75C21.5563 8.75 25.25 12.4437 25.25 17ZM32.2969 21.2969C32.2969 25.8532 28.6032 29.5469 24.0469 29.5469C19.4905 29.5469 15.7969 25.8532 15.7969 21.2969C15.7969 16.7405 19.4905 13.0469 24.0469 13.0469C28.6032 13.0469 32.2969 16.7405 32.2969 21.2969ZM32.2969 13.0469C32.2969 17.6032 28.6032 21.2969 24.0469 21.2969C19.4905 21.2969 15.7969 17.6032 15.7969 13.0469C15.7969 8.49053 19.4905 4.79688 24.0469 4.79688C28.6032 4.79688 32.2969 8.49053 32.2969 13.0469ZM18.2031 21.2969C18.2031 25.8532 14.5095 29.5469 9.95312 29.5469C5.39678 29.5469 1.70312 25.8532 1.70312 21.2969C1.70312 16.7405 5.39678 13.0469 9.95312 13.0469C14.5095 13.0469 18.2031 16.7405 18.2031 21.2969ZM18.2031 13.0469C18.2031 17.6032 14.5095 21.2969 9.95312 21.2969C5.39678 21.2969 1.70312 17.6032 1.70312 13.0469C1.70312 8.49053 5.39678 4.79688 9.95312 4.79688C14.5095 4.79688 18.2031 8.49053 18.2031 13.0469Z" stroke="white"/>
</svg>
