<svg width="33" height="33" viewBox="0 0 33 33" fill="none" xmlns="http://www.w3.org/2000/svg">
<g clip-path="url(#clip0_2001_10587)">
<path d="M5.38428 21.0356C4.96708 20.0581 4.28639 19.1927 3.3921 18.5595L0.483459 16.5L3.3921 14.4405C5.21632 13.149 6.15166 10.8908 5.77506 8.68757L5.17442 5.17449L8.68757 5.77506C9.01267 5.83062 9.34428 5.85879 9.67312 5.85879C11.5647 5.85885 13.3469 4.93666 14.4405 3.3921L16.5 0.483398L18.5595 3.3921C19.6531 4.93672 21.4353 5.85879 23.3269 5.85879C23.6556 5.85879 23.9873 5.83056 24.3124 5.77506L27.8256 5.17449L27.2249 8.68764C26.8483 10.8908 27.7837 13.149 29.6079 14.4405L32.5165 16.5L29.6079 18.5595C27.7837 19.851 26.8483 22.1092 27.2249 24.3124L27.8256 27.8255L24.3124 27.2249C23.9873 27.1694 23.6557 27.1412 23.3269 27.1412C21.4354 27.1412 19.6532 28.0633 18.5595 29.6079L16.5 32.5166L14.4405 29.6079C13.3469 28.0633 11.5647 27.1412 9.67312 27.1412C9.34435 27.1412 9.01273 27.1694 8.68757 27.2249L5.17442 27.8255L5.77506 24.3124C5.83661 23.9521 5.8631 23.5905 5.8564 23.2318" stroke="white" stroke-miterlimit="10" stroke-linecap="round" stroke-linejoin="round"/>
<path d="M23.0043 7.92064C23.3942 7.91961 23.7873 7.88629 24.1798 7.8192L25.3872 7.61282L25.1808 8.82022C24.7216 11.5063 25.8446 14.2175 28.0687 15.7922L29.0683 16.5L28.0687 17.2078C25.8446 18.7825 24.7216 21.4938 25.1808 24.1798L25.3872 25.3872L24.1798 25.1809C21.4937 24.7217 18.7824 25.8447 17.2077 28.0688L16.5 29.0684L15.7921 28.0687C14.2175 25.8447 11.5062 24.7216 8.82012 25.1808L7.61272 25.3872L7.8191 24.1798C8.27826 21.4937 7.15523 18.7825 4.93121 17.2078L3.93161 16.5L4.93128 15.7922C7.1553 14.2175 8.27833 11.5062 7.81916 8.82015L7.61279 7.61275L8.82019 7.81913C11.5063 8.2783 14.2175 7.15526 15.7922 4.93124L16.5 3.93164L17.2078 4.93131C18.1029 6.19562 19.3654 7.10409 20.7817 7.56841" stroke="white" stroke-miterlimit="10" stroke-linecap="round" stroke-linejoin="round"/>
<path d="M22.9563 20.4606C23.6647 19.3082 24.0732 17.9518 24.0732 16.5C24.0732 12.3174 20.6825 8.92676 16.5 8.92676C12.3174 8.92676 8.92673 12.3174 8.92673 16.5C8.92673 20.6826 12.3174 24.0732 16.5 24.0732C18.4227 24.0732 20.178 23.3567 21.5136 22.1762" stroke="white" stroke-miterlimit="10" stroke-linecap="round" stroke-linejoin="round"/>
<path d="M15.0464 12.9229L15.3443 11.4727H18.7818L17.0156 16.025H17.9444C18.4141 16.025 18.7261 16.5114 18.5302 16.9383L16.4347 21.506C16.3567 21.6762 16.1866 21.7852 15.9995 21.7852C15.7046 21.7852 15.4798 21.5212 15.5267 21.2301L16.134 17.4651H14.9037C14.4956 17.4651 14.1902 17.0906 14.2724 16.6909L14.5963 15.1139" stroke="white" stroke-miterlimit="10" stroke-linecap="round" stroke-linejoin="round"/>
</g>
<defs>
<clipPath id="clip0_2001_10587">
<rect width="33" height="33" fill="white"/>
</clipPath>
</defs>
</svg>
