<svg width="33" height="33" viewBox="0 0 33 33" fill="none" xmlns="http://www.w3.org/2000/svg">
<path d="M30.4728 16.3897C30.2041 15.2429 29.5104 14.2406 28.5317 13.5851C29.2625 12.0146 28.8422 9.65235 27.4842 8.67928C26.9174 8.25805 26.2531 7.98725 25.5534 7.89213C25.5162 6.94679 25.1075 6.05433 24.416 5.40859C23.65 4.78253 22.6884 4.44536 21.6991 4.45593C21.2266 3.06932 19.7097 1.96432 18.262 2.16442C17.9257 2.19623 17.5991 2.29441 17.301 2.45326C17.0029 2.61211 16.7392 2.8285 16.5252 3.0899C16.1943 2.73371 15.7868 2.45737 15.3334 2.28175C14.88 2.10612 14.3927 2.03581 13.9082 2.07611C13.4237 2.11641 12.9546 2.26628 12.5365 2.51439C12.1184 2.7625 11.7621 3.10238 11.4946 3.50835C11.2862 3.82902 11.1441 4.18813 11.0766 4.56454C10.9768 4.58006 10.8779 4.60059 10.7803 4.62606C10.0208 4.84332 9.33667 5.2675 8.80437 5.85118C8.27208 6.43486 7.91257 7.15506 7.76603 7.9313C7.25178 7.92154 6.74093 8.01668 6.26468 8.21093C5.78843 8.40517 5.35676 8.69444 4.99603 9.06108C3.89253 10.2458 3.84722 11.994 3.91528 12.9177C1.80909 14.6265 2.0548 18.7428 4.35763 19.7227C3.21183 22.0312 4.66078 25.1955 7.30039 25.5263C7.38517 26.4648 7.82931 27.3343 8.54003 27.953C9.25075 28.5718 10.1731 28.8919 11.1143 28.8467C11.3067 29.3657 11.6304 29.826 12.054 30.1824C12.4775 30.5389 12.9863 30.7793 13.5306 30.8802C14.0749 30.9811 14.636 30.939 15.1592 30.7581C15.6823 30.5771 16.1496 30.2635 16.5152 29.8479C17.0523 30.426 17.7767 30.7952 18.5601 30.8902C19.3434 30.9852 20.1351 30.7997 20.7948 30.3667C21.0671 30.1862 21.3006 29.9529 21.4814 29.6807C21.6622 29.4085 21.7867 29.1029 21.8475 28.7819C22.4574 28.6865 23.0382 28.4555 23.547 28.1058C24.0557 27.7562 24.4796 27.2968 24.7873 26.7616C25.015 26.3871 25.1863 25.9809 25.2954 25.5563C25.983 25.475 26.645 25.2464 27.2364 24.8863C28.6894 24.1817 29.3304 21.9885 29.0726 20.3008C29.5985 19.806 29.9997 19.1936 30.2431 18.5137C30.4865 17.8338 30.5652 17.1059 30.4728 16.3897ZM28.7263 19.1292C28.3348 19.8286 27.1974 20.2079 26.2903 20.2684C26.2229 20.2745 26.1572 20.2939 26.0973 20.3254C26.0373 20.3569 25.9841 20.3999 25.9407 20.452C25.8974 20.5041 25.8647 20.5642 25.8446 20.6289C25.8244 20.6936 25.8172 20.7616 25.8234 20.8291C25.9536 21.7438 27.5562 21.0545 28.0161 20.9269C28.1796 20.8701 28.0405 21.2651 28.0766 21.4113C28.0025 22.6591 27.5421 23.53 26.7079 24C26.137 24.3476 25.4882 24.547 24.8205 24.5801C24.7071 24.5982 24.6012 24.6479 24.5147 24.7234C24.4408 24.7916 24.3891 24.8805 24.3664 24.9785C24.2921 25.4218 24.1346 25.847 23.9022 26.2317C23.6913 26.5979 23.4091 26.9182 23.0724 27.1736C22.7357 27.429 22.3512 27.6143 21.9417 27.7187C21.826 27.6836 21.8854 27.337 21.8178 27.1944C21.7869 27.0629 21.7057 26.9488 21.5917 26.8765C21.4776 26.8042 21.3398 26.7795 21.2077 26.8076C21.0757 26.8357 20.9599 26.9145 20.8852 27.027C20.8106 27.1395 20.783 27.2768 20.8084 27.4095C21.2586 29.0647 20.0134 30.1631 18.4282 29.8278C18.1399 29.7645 17.8677 29.6424 17.6287 29.4692C17.3897 29.296 17.1889 29.0754 17.039 28.8211C17.0048 28.7626 16.9595 28.7114 16.9055 28.6704C16.8516 28.6294 16.7901 28.5995 16.7245 28.5823C16.659 28.5651 16.5907 28.561 16.5235 28.5702C16.4564 28.5794 16.3918 28.6018 16.3333 28.636C16.2617 28.6792 16.2018 28.7394 16.1592 28.8112C16.1165 28.8831 16.0922 28.9644 16.0886 29.048L15.9283 28.9352C14.9945 30.4264 12.3325 30.1402 12.1085 28.2627C12.0921 28.1285 12.0253 28.0056 11.9215 27.919C11.8177 27.8324 11.6849 27.7885 11.55 27.7963C11.1461 27.8605 10.7335 27.8431 10.3366 27.745C9.93958 27.647 9.56633 27.4702 9.23888 27.2253C8.76486 26.7819 8.45263 26.1928 8.35182 25.5516C8.61818 25.5278 8.88195 25.4808 9.14015 25.4112C9.20553 25.3931 9.26671 25.3624 9.3202 25.3207C9.37369 25.279 9.41843 25.2272 9.45186 25.1682C9.4853 25.1092 9.50676 25.0442 9.51503 24.9769C9.52331 24.9096 9.51822 24.8413 9.50008 24.7759C9.48193 24.7106 9.45107 24.6495 9.40927 24.5961C9.36747 24.5427 9.31554 24.498 9.25647 24.4647C9.1974 24.4314 9.13234 24.4101 9.06501 24.4019C8.99768 24.3938 8.92941 24.399 8.86411 24.4173C8.39482 24.5629 7.89684 24.5905 7.41436 24.4975C6.93188 24.4045 6.4798 24.1939 6.09823 23.8843C5.71666 23.5747 5.41739 23.1757 5.22697 22.7228C5.03655 22.2698 4.96087 21.7769 5.00664 21.2876C5.01723 20.7772 5.16792 20.2796 5.44224 19.849C5.71657 19.4185 6.10397 19.0716 6.5621 18.8464C6.68248 18.7851 6.77401 18.679 6.81702 18.5509C6.86003 18.4228 6.85109 18.283 6.79212 18.1614C6.73315 18.0399 6.62885 17.9463 6.50164 17.9008C6.37442 17.8553 6.23444 17.8615 6.11175 17.9181C5.65353 18.141 5.24558 18.455 4.91282 18.841C2.48217 17.7533 3.32255 13.2608 6.201 12.9116C6.33599 12.8893 6.45659 12.8143 6.5363 12.7031C6.61601 12.5919 6.6483 12.4536 6.62607 12.3187C6.42669 11.5243 5.42015 12.0499 4.93028 12.2404C4.90185 11.3439 5.19255 10.4665 5.7506 9.76428C6.2638 9.25551 6.95699 8.96974 7.67964 8.96903C7.74585 9.50905 7.82747 10.803 8.53007 10.8461C8.61623 10.8453 8.70085 10.8232 8.77628 10.7815C8.85171 10.7398 8.91557 10.6801 8.96208 10.6075C9.00859 10.535 9.03628 10.452 9.04266 10.3661C9.04904 10.2801 9.03389 10.194 8.9986 10.1154C8.80703 9.68749 8.70916 9.22358 8.71155 8.75477C8.71394 8.28596 8.81654 7.82308 9.01247 7.39717C9.20839 6.97126 9.49312 6.59216 9.84755 6.28529C10.202 5.97842 10.6179 5.75088 11.0675 5.61792C11.1526 6.00956 11.2056 6.74405 11.7544 6.74346C11.8373 6.7429 11.9189 6.72246 11.9923 6.68387C12.0656 6.64527 12.1287 6.58964 12.1761 6.52165C12.2235 6.45365 12.2539 6.37527 12.2648 6.29309C12.2757 6.21091 12.2667 6.12732 12.2385 6.04933C12.115 5.73064 12.0538 5.39121 12.0582 5.04944C12.0799 3.58589 13.7993 2.65736 15.0861 3.27461C15.5072 3.45961 15.8477 3.78988 16.0455 4.20514C16.068 4.26973 16.1032 4.32917 16.1489 4.37996C16.1947 4.43075 16.2502 4.47186 16.3121 4.50089C16.4365 4.55509 16.577 4.55958 16.7046 4.51344C16.8322 4.4673 16.9372 4.37403 16.9982 4.25281C17.6061 2.80463 19.4072 2.91601 20.286 4.03673C20.5221 4.29345 20.6905 4.60501 20.7758 4.9432C20.8611 5.28139 20.8607 5.63552 20.7746 5.97352C20.7405 6.10437 20.7591 6.2434 20.8264 6.36066C20.8938 6.47793 21.0045 6.56406 21.1347 6.60051C21.2649 6.63696 21.4043 6.62081 21.5227 6.55555C21.6411 6.49028 21.7292 6.38111 21.768 6.25155C21.8371 6.00533 21.8738 5.75115 21.8773 5.49543C22.5522 5.51599 23.2021 5.75558 23.7289 6.17803C24.1794 6.6126 24.4539 7.19804 24.4997 7.82231C24.2683 7.82573 24.0374 7.84436 23.8085 7.87809C23.674 7.90133 23.5541 7.97695 23.4753 8.08838C23.3964 8.19981 23.3649 8.33797 23.3877 8.47258C23.4105 8.60719 23.4857 8.72728 23.5969 8.80652C23.708 8.88577 23.8461 8.91772 23.9808 8.89536C23.9974 8.89183 25.7282 8.61832 26.856 9.49731C28.5619 10.848 27.972 14.1587 25.845 14.8888C25.7185 14.9409 25.6178 15.0411 25.5651 15.1673C25.5124 15.2936 25.512 15.4356 25.564 15.5621C26.0718 16.5183 27.6317 14.9617 28.0039 14.4748C28.3861 14.7089 28.7128 15.0233 28.9612 15.3963C29.2097 15.7693 29.374 16.1919 29.4427 16.6348C29.5115 17.0776 29.483 17.5301 29.3593 17.9609C29.2356 18.3917 29.0196 18.7903 28.7263 19.1292Z" fill="white"/>
<path d="M13.8832 1.76701C14.4138 1.72299 14.9477 1.80044 15.4442 1.99259C15.8371 2.14481 16.1982 2.36828 16.5117 2.6472C16.7029 2.46255 16.9207 2.30541 17.1562 2.17991C17.4902 2.00206 17.8571 1.89127 18.2338 1.85563V1.85765C19.0446 1.74976 19.8569 2.00395 20.5219 2.45988C21.1297 2.87674 21.63 3.47408 21.9117 4.15177C22.7647 4.18332 23.5908 4.45229 24.2944 4.93125L24.6127 5.16893L24.6268 5.18302C25.3154 5.82618 25.7414 6.69472 25.8393 7.6262C26.4984 7.75314 27.1211 8.02709 27.6621 8.42784H27.6641C28.425 8.97304 28.9003 9.88708 29.0942 10.8468C29.271 11.7222 29.2173 12.6709 28.9068 13.4794C29.7162 14.0833 30.324 14.9142 30.6451 15.8681L30.774 16.3193L30.778 16.3354L30.78 16.3495C30.8787 17.1141 30.7941 17.8917 30.5343 18.6175C30.2922 19.2937 29.9023 19.9062 29.3963 20.4141C29.4988 21.271 29.394 22.2264 29.0861 23.0688C28.7636 23.9509 28.2057 24.7458 27.3962 25.1494C26.8258 25.4967 26.1934 25.7233 25.5351 25.8282C25.4198 26.2086 25.26 26.5734 25.0538 26.9138L25.0558 26.9158C24.7251 27.4909 24.2691 27.9842 23.7224 28.36C23.2334 28.696 22.6808 28.9237 22.101 29.0428C22.0237 29.3297 21.9034 29.6042 21.7385 29.8525C21.5349 30.1588 21.2716 30.4207 20.965 30.6239V30.6259C20.2442 31.099 19.3778 31.3017 18.5218 31.1979C17.772 31.1068 17.0703 30.7866 16.5137 30.2835C16.1538 30.6225 15.7305 30.8884 15.2609 31.0509C14.6872 31.2493 14.0713 31.2945 13.4744 31.1838C12.8774 31.0732 12.3195 30.8094 11.855 30.4184C11.447 30.075 11.13 29.6412 10.9144 29.1556C9.96879 29.1498 9.05297 28.8107 8.33623 28.1867C7.62646 27.5688 7.16593 26.7192 7.02501 25.7939C5.70022 25.5438 4.68445 24.6326 4.13066 23.5018C3.58891 22.395 3.47429 21.0524 3.95342 19.8663C2.83999 19.2399 2.25836 17.9363 2.17491 16.6134C2.08771 15.2292 2.53605 13.7255 3.59893 12.7825C3.54685 11.8057 3.63551 10.0684 4.76915 8.85081L4.7752 8.84477C5.16521 8.44837 5.63197 8.13442 6.14684 7.9243C6.58298 7.74641 7.04716 7.65064 7.51647 7.63023C7.69835 6.891 8.06117 6.20669 8.57592 5.64225C9.14673 5.01647 9.88048 4.56206 10.6948 4.32902L10.7029 4.32701C10.7415 4.31694 10.7807 4.30949 10.8197 4.30082C10.9048 3.96026 11.0448 3.63324 11.2366 3.33805C11.5299 2.89306 11.9203 2.52038 12.3786 2.24839C12.8371 1.97637 13.352 1.8112 13.8832 1.76701ZM13.9336 2.38536C13.4961 2.42179 13.0725 2.55618 12.6949 2.78013C12.318 3.00379 11.9938 3.30875 11.7522 3.67442L11.7543 3.67643C11.5684 3.96244 11.4419 4.28334 11.3816 4.61906L11.3414 4.83659L11.1238 4.87083C11.0358 4.88453 10.9482 4.90086 10.862 4.9232C10.159 5.12489 9.52601 5.51885 9.03313 6.05918C8.5395 6.60046 8.20627 7.2689 8.07036 7.98875L8.02202 8.24656L7.76018 8.24052C7.28815 8.23156 6.81967 8.32011 6.38249 8.49833C5.94518 8.6767 5.54754 8.94115 5.2163 9.27781C4.21295 10.361 4.15636 11.9865 4.22332 12.8952L4.2354 13.0564L4.11052 13.1571C3.15519 13.9322 2.70971 15.2809 2.79125 16.5751C2.87333 17.8738 3.47552 19.0102 4.47911 19.4372L4.78124 19.5661L4.6342 19.8602C4.10981 20.9169 4.1743 22.1835 4.68657 23.2299C5.1342 24.144 5.91186 24.8664 6.90215 25.1333L7.33922 25.2199L7.58696 25.2501L7.60912 25.4978C7.68671 26.3568 8.09266 27.1531 8.74309 27.7195C9.39362 28.2858 10.2381 28.5786 11.0997 28.5372L11.3252 28.5271L11.4038 28.7386C11.5776 29.2075 11.8712 29.6231 12.2538 29.9451C12.6363 30.2671 13.0955 30.4844 13.5871 30.5755C14.0787 30.6666 14.585 30.6281 15.0575 30.4648C15.53 30.3013 15.9518 30.0184 16.2821 29.643L16.3244 29.5926L15.9961 29.359C15.4222 30.0337 14.5141 30.2882 13.706 30.1687C12.8491 30.0416 12.0413 29.4838 11.8348 28.501L11.8006 28.2995C11.7936 28.244 11.7669 28.1926 11.724 28.1565C11.6806 28.1203 11.6234 28.1029 11.5669 28.1062L11.5649 28.1042C11.1308 28.1688 10.688 28.1511 10.2618 28.0458C9.82484 27.9377 9.41371 27.7433 9.05327 27.4737L9.03917 27.4637L9.02709 27.4516C8.50295 26.9613 8.15785 26.3095 8.04619 25.6006L7.99382 25.2723L8.32415 25.2441C8.57181 25.2219 8.8172 25.1778 9.0573 25.1131L9.12981 25.0769C9.15098 25.0604 9.16885 25.0397 9.18218 25.0165C9.19544 24.9931 9.20499 24.9666 9.20836 24.9399C9.21165 24.9132 9.20944 24.8853 9.20232 24.8594C9.19508 24.8333 9.18269 24.8082 9.16606 24.7868C9.14934 24.7655 9.12726 24.7478 9.10363 24.7345C9.08014 24.7213 9.05381 24.7115 9.02709 24.7083C9.00102 24.7053 8.97386 24.7055 8.94853 24.7123C8.43251 24.8713 7.8856 24.9031 7.35533 24.8009C6.82305 24.6983 6.3241 24.4657 5.90312 24.1242C5.48233 23.7827 5.15248 23.3427 4.94237 22.8432C4.73525 22.3505 4.65066 21.8145 4.69664 21.2822L4.73491 20.8592C4.80127 20.4421 4.9535 20.0417 5.18206 19.683C5.48556 19.2067 5.91261 18.8214 6.41875 18.5711C6.46696 18.5466 6.50626 18.5036 6.52349 18.4523C6.54063 18.4012 6.53682 18.3458 6.51342 18.2972C6.4898 18.2485 6.44754 18.2107 6.39659 18.1925C6.34736 18.1751 6.29337 18.1758 6.24553 18.1965C5.82595 18.4009 5.45268 18.6891 5.14781 19.0425L4.99675 19.2177L4.78728 19.123C3.38862 18.4972 2.98059 16.9191 3.26256 15.5378C3.54537 14.1531 4.54661 12.8062 6.15087 12.6052C6.20473 12.5962 6.25399 12.567 6.28582 12.5226C6.3158 12.4805 6.32438 12.4288 6.31804 12.3776C6.28736 12.2693 6.24677 12.2401 6.21733 12.2265C6.1683 12.2041 6.07993 12.1909 5.93737 12.2145C5.64201 12.2634 5.32356 12.4195 5.04308 12.5287L4.6342 12.6878L4.6201 12.2507C4.58936 11.281 4.90473 10.3314 5.50835 9.57188L5.53252 9.54368C6.10355 8.97775 6.87564 8.66026 7.67961 8.65947H7.95354L7.98577 8.93138C8.02126 9.2209 8.05582 9.64225 8.16301 10.0069C8.21606 10.1874 8.28032 10.3266 8.35234 10.4178C8.41509 10.4971 8.47417 10.5258 8.53765 10.5326C8.56867 10.5308 8.59897 10.5255 8.62627 10.5105C8.65668 10.4937 8.68204 10.4692 8.70079 10.44C8.71953 10.4107 8.73246 10.3779 8.73503 10.3433C8.73759 10.3089 8.73095 10.2741 8.71691 10.2426C8.55978 9.89163 8.45969 9.51774 8.42083 9.13682L8.4027 8.75413C8.40531 8.24122 8.51665 7.73366 8.73101 7.26768C8.94536 6.80172 9.25768 6.38685 9.64543 6.05113C10.0328 5.7158 10.4875 5.46746 10.9788 5.322L11.2991 5.22734L11.3696 5.55162C11.4213 5.78977 11.4446 6.01314 11.5246 6.21427C11.5613 6.30623 11.599 6.36265 11.6334 6.39354C11.6603 6.41762 11.6933 6.43152 11.7522 6.4318C11.7857 6.43158 11.8194 6.42521 11.8489 6.40965C11.8779 6.39425 11.9025 6.37204 11.9214 6.3452C11.9405 6.31779 11.9533 6.28567 11.9577 6.25254C11.9621 6.21941 11.959 6.18529 11.9476 6.15385H11.9456C11.8099 5.80072 11.7434 5.4244 11.7482 5.04606V5.04405C11.7613 4.18346 12.2747 3.49398 12.9446 3.11247C13.6128 2.73206 14.4727 2.63688 15.2206 2.99565H15.2186C15.7035 3.21105 16.0959 3.5921 16.3244 4.07121L16.3324 4.08732L16.3385 4.10343C16.3473 4.12878 16.3609 4.15193 16.3788 4.17192C16.3962 4.19129 16.4178 4.20682 16.4412 4.21824C16.4918 4.23883 16.5488 4.24089 16.6003 4.22227C16.6531 4.20291 16.6959 4.16375 16.7212 4.11351C17.0784 3.28259 17.7898 2.88816 18.5339 2.87278C19.2701 2.85764 20.0323 3.21098 20.53 3.84562H20.5279C20.7906 4.13673 20.9797 4.48645 21.0758 4.8668C21.1736 5.25469 21.1724 5.66143 21.0738 6.04911V6.05113C21.0602 6.10326 21.0673 6.15941 21.0939 6.20622C21.1209 6.25315 21.1667 6.28831 21.2188 6.3029C21.2707 6.31722 21.3267 6.31077 21.3739 6.28477C21.4208 6.25882 21.4549 6.21515 21.4706 6.16392C21.5317 5.94478 21.5642 5.71869 21.5672 5.49119L21.5713 5.17698L21.8875 5.18705C22.629 5.20983 23.343 5.47234 23.9218 5.93632L23.944 5.95445L24.1232 6.14579C24.5215 6.60758 24.763 7.18669 24.808 7.79942L24.8322 8.12773L24.5039 8.13176C24.2875 8.13497 24.0714 8.15074 23.8573 8.18211C23.8052 8.19205 23.7593 8.22342 23.7284 8.2667C23.6969 8.31131 23.6831 8.36791 23.6922 8.42179C23.7015 8.47539 23.7325 8.52315 23.7768 8.55473C23.7988 8.57037 23.8235 8.58091 23.8493 8.58696L23.9299 8.59098C24.017 8.57647 24.46 8.51658 25.0235 8.55674C25.5511 8.59436 26.2191 8.72072 26.8021 9.08244L27.0458 9.25364L27.0478 9.25566C28.0158 10.0223 28.3053 11.3182 28.0911 12.4823C27.8774 13.6428 27.1473 14.7582 25.9601 15.1733L25.9621 15.1753C25.912 15.1961 25.8725 15.236 25.8514 15.2861C25.8324 15.3316 25.8304 15.3824 25.8453 15.4291C25.8818 15.4933 25.9158 15.5221 25.942 15.5358C25.9711 15.551 26.0144 15.5616 26.081 15.5559C26.2262 15.5435 26.4285 15.4586 26.6651 15.3022C27.1305 14.9944 27.5891 14.5089 27.7588 14.287L27.928 14.0655L28.1656 14.2105C28.5861 14.468 28.9457 14.8153 29.219 15.2256C29.4921 15.6358 29.6732 16.1003 29.7488 16.5872C29.8244 17.0742 29.7921 17.5717 29.6561 18.0455C29.52 18.5193 29.2838 18.9597 28.9612 19.3325C28.7112 19.7391 28.2785 20.0292 27.8232 20.2228C27.3431 20.4268 26.7993 20.5424 26.3166 20.5752C26.2902 20.5779 26.2636 20.587 26.2401 20.5994C26.2164 20.612 26.1948 20.6292 26.1777 20.6498C26.1605 20.6705 26.1474 20.6946 26.1394 20.7203C26.1319 20.7442 26.1298 20.7698 26.1313 20.7948C26.1412 20.855 26.1595 20.8866 26.1736 20.9035C26.1888 20.9215 26.2137 20.94 26.2582 20.9559C26.3604 20.992 26.5261 20.9984 26.7477 20.964C26.9617 20.9306 27.1922 20.8655 27.4043 20.7988C27.5886 20.7408 27.792 20.6711 27.9139 20.6357V20.6336C27.9748 20.6125 28.0825 20.5923 28.1959 20.6457C28.3117 20.7007 28.363 20.7992 28.3832 20.8592C28.4173 20.9608 28.4055 21.0736 28.4013 21.1211C28.3984 21.1537 28.3946 21.1872 28.3912 21.2157C28.3876 21.2461 28.3854 21.2725 28.3832 21.2963C28.3776 21.3553 28.3823 21.3574 28.3771 21.3366L28.3892 21.3829L28.3852 21.4292C28.3072 22.7423 27.8147 23.7251 26.8665 24.2632L26.8685 24.2652C26.2607 24.6351 25.5706 24.8463 24.8604 24.8855C24.8085 24.8954 24.7596 24.9195 24.7194 24.954C24.6934 24.9795 24.6753 25.0131 24.667 25.0487C24.585 25.5235 24.4168 25.9796 24.1675 26.3921L24.1655 26.3901C23.9343 26.79 23.6271 27.1402 23.2591 27.4194C22.8897 27.6996 22.4678 27.9029 22.0184 28.0176L21.9338 28.0397L21.8512 28.0155C21.6651 27.9589 21.6058 27.7917 21.5874 27.7295C21.5652 27.6547 21.5571 27.574 21.5532 27.5201C21.5481 27.4518 21.5461 27.4118 21.5411 27.365C21.5359 27.317 21.5323 27.3124 21.5391 27.3267L21.525 27.2965L21.5169 27.2643C21.5044 27.2119 21.4717 27.1662 21.4263 27.1374C21.3808 27.1086 21.3258 27.1002 21.2732 27.1112C21.2203 27.1225 21.1722 27.1527 21.1423 27.1978C21.1125 27.2427 21.102 27.2979 21.112 27.3509H21.11C21.3509 28.2614 21.1378 29.0614 20.5964 29.5866C20.0565 30.1103 19.2389 30.3152 18.3647 30.1304H18.3627C18.0329 30.058 17.7197 29.9177 17.4463 29.7195C17.1731 29.5214 16.9429 29.269 16.7715 28.9783V28.9763C16.7579 28.9532 16.7405 28.9321 16.7192 28.9159C16.6978 28.8996 16.6726 28.8885 16.6467 28.8816C16.6205 28.8748 16.5928 28.874 16.5661 28.8776C16.54 28.8812 16.5144 28.8888 16.4916 28.9018C16.4643 28.9185 16.4415 28.9427 16.4251 28.9703C16.4088 28.9979 16.3984 29.0288 16.3969 29.0609L16.3747 29.5362L16.5097 29.3872L16.7413 29.6369C17.2285 30.1613 17.8859 30.4973 18.5964 30.5836C19.307 30.6698 20.0261 30.501 20.6246 30.1083L20.7958 29.9814C20.9606 29.8466 21.1046 29.6879 21.2228 29.5101C21.3807 29.2723 21.4899 29.0049 21.5431 28.7245L21.5834 28.509L21.7989 28.4768C22.3631 28.3886 22.9013 28.1738 23.3719 27.8504C23.8424 27.527 24.2355 27.1026 24.52 26.6076L24.522 26.6016C24.7339 26.2532 24.8938 25.8747 24.9953 25.4797L25.0477 25.2743L25.2592 25.2501C25.9027 25.174 26.5226 24.9587 27.076 24.6217L27.0881 24.6136L27.1022 24.6076C27.731 24.3023 28.2127 23.6578 28.506 22.8553C28.798 22.0559 28.8867 21.1386 28.7659 20.3476L28.7417 20.1865L28.8605 20.0757C29.3508 19.6146 29.7253 19.0437 29.9522 18.41C30.1779 17.7796 30.2498 17.1044 30.1657 16.4402C29.9115 15.3781 29.2668 14.4499 28.359 13.8419L28.1395 13.6949L28.2502 13.4552C28.5831 12.7398 28.6606 11.8251 28.4879 10.9697C28.3148 10.1125 27.9007 9.35923 27.3036 8.93138L27.2995 8.92735C26.7747 8.53736 26.1589 8.2863 25.511 8.19822L25.2552 8.16398L25.2451 7.90416C25.2113 7.04705 24.8428 6.23725 24.2199 5.6483L23.946 5.44285C23.2873 4.99454 22.5044 4.75752 21.7022 4.76609L21.4786 4.76811L21.4061 4.55662C21.1934 3.93251 20.7412 3.36008 20.1714 2.96946C19.6019 2.57904 18.9365 2.38259 18.3043 2.46995L18.2902 2.47197C17.995 2.50001 17.708 2.5863 17.4463 2.72575C17.1845 2.86526 16.9535 3.05618 16.7655 3.28569L16.5399 3.55961L16.2982 3.29978C15.9995 2.97848 15.6317 2.72928 15.2226 2.57066C14.813 2.41197 14.3714 2.34894 13.9336 2.38536ZM14.9527 3.55357C14.414 3.29514 13.7694 3.35496 13.2508 3.65025C12.7341 3.94446 12.3755 4.45154 12.3666 5.05412C12.3637 5.28044 12.3942 5.50566 12.4552 5.72282L12.5277 5.93833L12.5297 5.94438C12.5745 6.06871 12.5892 6.20208 12.572 6.33311C12.5547 6.46423 12.5046 6.58916 12.429 6.69767C12.3534 6.80607 12.2538 6.89588 12.137 6.9575C12.0198 7.01913 11.8886 7.05127 11.7563 7.05217H11.7543C11.5402 7.05228 11.3602 6.97809 11.2205 6.85276C11.0883 6.73401 11.0043 6.58181 10.9486 6.44187C10.8974 6.31306 10.8603 6.16573 10.8318 6.03099C10.5483 6.15184 10.2843 6.31586 10.0503 6.51841C9.72919 6.79641 9.47045 7.14166 9.29296 7.52751C9.11581 7.91299 9.02324 8.3319 9.02104 8.75615C9.01888 9.18078 9.10738 9.60123 9.28087 9.98881L9.3413 10.1842C9.35314 10.2515 9.35646 10.321 9.35137 10.3896C9.3411 10.5266 9.29657 10.6587 9.22246 10.7743C9.14829 10.89 9.04662 10.9858 8.92638 11.0523C8.80621 11.1186 8.67087 11.1537 8.53362 11.155H8.51146C8.22823 11.1377 8.01532 10.99 7.86693 10.8025C7.72452 10.6225 7.63212 10.3973 7.56884 10.1822C7.48124 9.88415 7.43802 9.552 7.4077 9.29393C6.87377 9.35453 6.37201 9.59048 5.98369 9.96867C5.57264 10.4905 5.32267 11.1165 5.25658 11.7713C5.43901 11.7018 5.64464 11.636 5.83666 11.6042C6.03183 11.5719 6.26414 11.5661 6.47515 11.6626C6.64662 11.7411 6.77488 11.8746 6.85784 12.0513L6.92632 12.2427L6.93236 12.2688H6.93035C6.96582 12.4847 6.91479 12.7054 6.78734 12.8832C6.65985 13.061 6.46746 13.1818 6.25157 13.2175L6.23748 13.2195C4.97137 13.3735 4.11749 14.4441 3.86882 15.6607C3.63491 16.8059 3.95986 17.9409 4.8477 18.4604C5.17417 18.1252 5.55383 17.846 5.97563 17.6406L5.98168 17.6366C6.17792 17.5461 6.40258 17.5376 6.60607 17.6104C6.80933 17.6832 6.97709 17.833 7.07134 18.0273C7.16519 18.2215 7.17827 18.4452 7.10961 18.6497C7.04075 18.8544 6.89516 19.025 6.70275 19.123L6.69872 19.125C6.2917 19.3252 5.94751 19.6328 5.70372 20.0153C5.45988 20.398 5.3244 20.8406 5.31499 21.2943V21.3164C5.27396 21.755 5.34169 22.1975 5.51238 22.6035C5.68308 23.0093 5.952 23.3674 6.29387 23.6448C6.6356 23.9218 7.0402 24.1113 7.47216 24.1947C7.90464 24.278 8.35264 24.2527 8.7733 24.1222L8.78136 24.1202C8.88552 24.0911 8.99424 24.0811 9.10161 24.094C9.20904 24.107 9.31346 24.1416 9.40776 24.1947C9.50227 24.248 9.58661 24.3207 9.65349 24.4062C9.71988 24.4912 9.76953 24.5883 9.79851 24.6922C9.82752 24.7966 9.83587 24.9068 9.82268 25.0144C9.80947 25.1219 9.77529 25.2263 9.72197 25.3206C9.66855 25.4149 9.59593 25.4977 9.51049 25.5643C9.42496 25.631 9.327 25.6805 9.22246 25.7093H9.22045C9.05797 25.7531 8.89294 25.7852 8.72698 25.8121C8.85407 26.2581 9.09703 26.6645 9.43596 26.9863C9.72743 27.2019 10.0588 27.3586 10.4108 27.4455C10.7673 27.5336 11.1378 27.5474 11.5005 27.4898L11.5166 27.4878H11.5327C11.7456 27.4757 11.955 27.5447 12.1188 27.6812C12.2829 27.8182 12.3889 28.0129 12.4149 28.225V28.227C12.5069 28.9948 13.0909 29.4517 13.7966 29.5564C14.5118 29.6622 15.2772 29.3913 15.6658 28.7709L15.839 28.4949L15.9538 28.5735C16.0152 28.4942 16.087 28.4242 16.1733 28.3721L16.1774 28.37C16.2709 28.3153 16.3741 28.278 16.4815 28.2633C16.5889 28.2486 16.6989 28.2559 16.8038 28.2834C16.9082 28.3109 17.0057 28.3591 17.0918 28.4244C17.1775 28.4895 17.2488 28.5713 17.3033 28.6641H17.3053C17.4336 28.8817 17.6063 29.0697 17.8108 29.218C18.014 29.3652 18.2447 29.4697 18.4896 29.5242H18.4916C19.2021 29.6744 19.799 29.4984 20.1654 29.1435C20.526 28.7937 20.7099 28.2255 20.5098 27.4898L20.5038 27.4677C20.4632 27.2556 20.5072 27.0353 20.6266 26.8554C20.7459 26.6757 20.9314 26.5501 21.1423 26.5049C21.3534 26.4599 21.5743 26.5002 21.7566 26.6157C21.9389 26.7313 22.0697 26.9132 22.1191 27.1233H22.1171C22.1393 27.1899 22.1526 27.2538 22.1574 27.2985C22.1583 27.3069 22.1566 27.3158 22.1574 27.3247C22.4171 27.2278 22.6627 27.096 22.8845 26.9279C23.1881 26.6976 23.4435 26.4081 23.6338 26.0779L23.6378 26.0719C23.8499 25.7207 23.9929 25.3324 24.0608 24.9278L24.0648 24.9077C24.1016 24.7498 24.1854 24.6068 24.3045 24.4968L24.3105 24.4908C24.4407 24.377 24.6011 24.3026 24.7718 24.2752L24.7879 24.2712H24.806C25.4217 24.2406 26.0197 24.056 26.5463 23.7355L26.5563 23.7294C27.2709 23.3265 27.6968 22.5715 27.7668 21.393C27.7654 21.372 27.7605 21.3518 27.7608 21.3326C27.7093 21.3495 27.6534 21.3695 27.5916 21.389C27.3701 21.4587 27.1044 21.5337 26.8443 21.5743C26.592 21.6136 26.302 21.628 26.0528 21.54C25.9229 21.4941 25.7972 21.4187 25.6983 21.3003C25.5989 21.1814 25.5402 21.0354 25.517 20.8733L25.515 20.8572C25.5051 20.7493 25.517 20.6404 25.5492 20.537C25.5813 20.4338 25.6333 20.3381 25.7023 20.255C25.7717 20.1717 25.8581 20.102 25.9541 20.0516C26.0499 20.0013 26.1545 19.9707 26.2623 19.9609L26.2703 19.9589C26.6931 19.9306 27.1704 19.8274 27.5815 19.6528C27.9988 19.4753 28.308 19.2416 28.4557 18.978L28.4718 18.9498L28.4919 18.9277C28.7557 18.6229 28.9506 18.2636 29.0619 17.8763C29.1733 17.4887 29.1983 17.0804 29.1365 16.6819C29.0746 16.2835 28.9269 15.9035 28.7034 15.568C28.5285 15.3055 28.3101 15.0759 28.0589 14.8872C27.8061 15.1684 27.4144 15.5475 27.0055 15.8178C26.7422 15.9918 26.435 16.1465 26.1334 16.1723C25.9764 16.1857 25.8108 16.1644 25.656 16.0837C25.5002 16.0022 25.3792 15.8723 25.2914 15.707L25.2834 15.6929L25.2773 15.6788C25.1946 15.4767 25.1953 15.25 25.2793 15.0484C25.3635 14.8467 25.5245 14.6866 25.7265 14.6033L25.7446 14.5952C26.6747 14.2757 27.2971 13.3792 27.4828 12.3695C27.6687 11.3589 27.4017 10.3253 26.6651 9.74107C26.1709 9.3562 25.5274 9.21216 24.9792 9.17308C24.4334 9.13422 24.0262 9.20124 24.0447 9.19725L24.0306 9.20127C23.8156 9.2367 23.5958 9.18457 23.4183 9.05827C23.2404 8.93152 23.1184 8.73981 23.0819 8.52452C23.0454 8.30929 23.0968 8.08841 23.2229 7.9102C23.3491 7.73194 23.5414 7.611 23.7566 7.57383L23.7627 7.57182C23.8882 7.55332 24.0149 7.53741 24.1413 7.52751C24.0482 7.10558 23.8371 6.71683 23.525 6.41166C23.1291 6.09716 22.657 5.89714 22.1594 5.82957C22.1397 5.99997 22.1132 6.16963 22.0668 6.33512L22.0647 6.34117C22.0026 6.5481 21.8612 6.7223 21.672 6.82658C21.4827 6.9309 21.2598 6.95723 21.0516 6.89909C20.8433 6.84078 20.6659 6.70198 20.5582 6.51438C20.4506 6.32699 20.4211 6.10512 20.4756 5.89604C20.5486 5.60858 20.548 5.30748 20.4756 5.01988C20.4029 4.73172 20.2598 4.46522 20.0586 4.24644L20.0425 4.22831C19.6614 3.74223 19.082 3.4801 18.546 3.49113C18.0241 3.50215 17.5364 3.76986 17.2831 4.37333L17.2751 4.39146C17.1786 4.58334 17.0118 4.73131 16.8098 4.80436C16.608 4.87733 16.3862 4.86976 16.1894 4.78422L16.1814 4.78019C16.0821 4.73366 15.993 4.66826 15.9195 4.58683C15.8535 4.51356 15.8025 4.42871 15.7665 4.33708V4.33909C15.6006 3.99087 15.3139 3.71273 14.9608 3.5576L14.9527 3.55357Z" fill="white"/>
<path d="M10.1486 14.9267C10.0923 14.8021 9.98884 14.705 9.86098 14.6566C9.73311 14.6082 9.59127 14.6125 9.46657 14.6686C8.67472 15.0254 7.18119 15.472 6.53844 15.1506C6.41644 15.0925 6.27652 15.0846 6.14875 15.1286C6.02098 15.1725 5.91555 15.2649 5.85512 15.3857C5.7947 15.5066 5.7841 15.6463 5.8256 15.7749C5.86709 15.9035 5.95738 16.0107 6.07706 16.0734C7.06485 16.6949 9.6268 15.7832 9.89121 15.6087C9.95291 15.5808 10.0085 15.5411 10.0548 15.4917C10.1012 15.4424 10.1373 15.3844 10.1612 15.321C10.1851 15.2577 10.1963 15.1903 10.1942 15.1226C10.192 15.055 10.1765 14.9884 10.1486 14.9267Z" fill="white"/>
<path d="M9.49461 14.3352C9.65174 14.2993 9.81697 14.3096 9.96995 14.3674C10.1743 14.4447 10.3411 14.5994 10.4312 14.7984C10.4758 14.8971 10.5002 15.0044 10.5037 15.1126C10.5072 15.2209 10.4896 15.3295 10.4513 15.4309C10.4131 15.532 10.3541 15.6239 10.2801 15.7028C10.2173 15.7697 10.1416 15.8213 10.0606 15.8639L10.0626 15.8659C10.0605 15.8673 10.0567 15.8686 10.0545 15.8699C10.0423 15.8763 10.0309 15.8844 10.0183 15.8901L10.0163 15.8881C9.95853 15.9203 9.88684 15.9592 9.81083 15.9908C9.70634 16.0342 9.57337 16.084 9.4221 16.1358C9.11972 16.2394 8.73195 16.3531 8.32036 16.442C7.91 16.5305 7.46598 16.5962 7.05345 16.5971C6.65664 16.5979 6.25108 16.537 5.93358 16.3453V16.3473C5.93066 16.3458 5.92842 16.3428 5.92552 16.3413C5.92144 16.3388 5.91547 16.3378 5.91142 16.3352V16.3332C5.73141 16.2314 5.59444 16.0673 5.53074 15.8699C5.46441 15.6643 5.48245 15.4409 5.57908 15.2476C5.67575 15.0543 5.84405 14.907 6.04838 14.8367C6.25251 14.7665 6.4758 14.7783 6.67076 14.8709L6.6768 14.8729L6.86815 14.9313C6.94729 14.945 7.04175 14.9525 7.15214 14.9515C7.36797 14.9495 7.61928 14.9163 7.88328 14.8609C8.41159 14.7499 8.96165 14.5558 9.33952 14.3855L9.49461 14.3352ZM9.59331 14.9515C9.17943 15.138 8.58688 15.346 8.01018 15.4671C7.7215 15.5277 7.42789 15.5673 7.15819 15.5698C6.89506 15.5722 6.62765 15.5371 6.40489 15.4268V15.4309C6.35621 15.4077 6.3008 15.4034 6.2498 15.4208C6.19868 15.4384 6.15517 15.4752 6.13096 15.5235C6.10677 15.5719 6.10428 15.6291 6.12089 15.6806C6.12922 15.706 6.14226 15.729 6.15916 15.7491L6.2216 15.7995L6.24174 15.8115L6.39079 15.884C6.55826 15.9464 6.78071 15.9792 7.05143 15.9787C7.40495 15.978 7.80318 15.9211 8.18944 15.8377C8.57443 15.7546 8.93962 15.6467 9.2227 15.5497C9.36398 15.5013 9.48317 15.4562 9.57316 15.4188C9.61827 15.4 9.65481 15.3835 9.68193 15.3704C9.7068 15.3585 9.71795 15.3516 9.7202 15.3503L9.74235 15.3362L9.76451 15.3261C9.78884 15.315 9.81064 15.2993 9.82896 15.2798C9.84747 15.2601 9.86171 15.2366 9.87126 15.2113C9.88071 15.1862 9.88618 15.1596 9.88536 15.1328L9.86723 15.0542C9.84476 15.0045 9.80334 14.9649 9.75242 14.9454C9.70119 14.9261 9.64327 14.929 9.59331 14.9515Z" fill="white"/>
<path d="M9.64288 21.2091C9.50863 21.2212 9.38444 21.2854 9.29688 21.3879C9.20933 21.4904 9.16535 21.6231 9.17438 21.7576C9.1834 21.892 9.24469 22.0177 9.34515 22.1075C9.44561 22.1974 9.57725 22.2444 9.71192 22.2385C10.2029 22.2241 10.6879 22.3497 11.11 22.6008C11.5322 22.8519 11.8742 23.2179 12.096 23.6562C12.1587 23.7759 12.2659 23.8662 12.3945 23.9077C12.5231 23.9492 12.6629 23.9386 12.7838 23.8782C12.9046 23.8177 12.997 23.7123 13.0409 23.5845C13.0849 23.4567 13.0769 23.3168 13.0188 23.1948C12.7061 22.5746 12.2215 22.0576 11.6229 21.7055C11.0242 21.3534 10.3368 21.181 9.64288 21.2091Z" fill="white"/>
<path d="M9.63042 20.8999C10.3835 20.8695 11.1298 21.0557 11.7795 21.4377C12.4292 21.8198 12.9547 22.3822 13.2942 23.0551L13.2982 23.0611C13.3912 23.2563 13.4028 23.4811 13.3324 23.6855C13.262 23.8896 13.1147 24.0583 12.9216 24.1548C12.7283 24.2513 12.5047 24.2675 12.2992 24.2012C12.0938 24.1347 11.9221 23.9914 11.8218 23.8003L11.8198 23.7963C11.6245 23.4104 11.3234 23.0868 10.9517 22.8658C10.5802 22.645 10.1531 22.5349 9.72105 22.5475L9.71904 22.5455C9.5059 22.5533 9.29805 22.4804 9.13896 22.3381C8.97827 22.1943 8.87947 21.9933 8.86504 21.7781C8.85063 21.563 8.92239 21.3499 9.06242 21.186C9.20228 21.0227 9.40021 20.9194 9.6143 20.8999H9.63042ZM9.66264 21.5163C9.61188 21.5228 9.56509 21.5497 9.53172 21.5888C9.49698 21.6296 9.48004 21.6824 9.48338 21.7358C9.487 21.7897 9.51164 21.8408 9.55186 21.8768C9.59206 21.9127 9.64507 21.9316 9.6989 21.9292H9.70293C10.2524 21.9131 10.7954 22.0532 11.2679 22.334C11.7392 22.6143 12.1213 23.0235 12.3697 23.5123C12.3948 23.5602 12.439 23.5964 12.4905 23.613C12.5418 23.6293 12.5975 23.625 12.6456 23.6009C12.6937 23.5768 12.7307 23.535 12.7483 23.4841C12.7653 23.4348 12.7633 23.3806 12.7423 23.3331C12.4564 22.7663 12.0125 22.2933 11.4653 21.9715C10.9202 21.651 10.2945 21.4921 9.66264 21.5163Z" fill="white"/>
<path d="M25.9322 10.6199C25.9196 10.486 25.8552 10.3624 25.7528 10.2753C25.6504 10.1881 25.5181 10.1444 25.3839 10.1534C25.2498 10.1623 25.1244 10.2233 25.0345 10.3233C24.9446 10.4232 24.8973 10.5543 24.9026 10.6887C24.9169 11.1798 24.7911 11.6648 24.54 12.0871C24.289 12.5094 23.9229 12.8515 23.4846 13.0735C23.383 13.1271 23.302 13.213 23.2544 13.3177C23.2069 13.4223 23.1954 13.5398 23.2219 13.6517C23.2484 13.7635 23.3112 13.8634 23.4007 13.9356C23.4901 14.0079 23.6009 14.0484 23.7159 14.0507C23.7958 14.0508 23.8746 14.0322 23.946 13.9963C24.5663 13.6836 25.0834 13.1989 25.4356 12.6002C25.7878 12.0014 25.9602 11.314 25.9322 10.6199Z" fill="white"/>
<path d="M25.3631 9.84399C25.5776 9.82966 25.7895 9.90009 25.9533 10.0394C26.0761 10.1439 26.1639 10.2817 26.2091 10.4341L26.2393 10.5912L26.2413 10.6074L26.2433 10.8893C26.2226 11.5458 26.036 12.1878 25.7015 12.7565C25.3193 13.4063 24.7593 13.9336 24.0861 14.2731H24.0841C23.9698 14.3304 23.8434 14.3598 23.7155 14.3597H23.7095C23.526 14.356 23.3487 14.2918 23.206 14.1764C23.0633 14.0612 22.9622 13.9017 22.9199 13.7233C22.8777 13.5447 22.8964 13.3566 22.9723 13.1895C23.0482 13.0224 23.1786 12.8864 23.3409 12.8008L23.3449 12.7967C23.7306 12.6013 24.0524 12.3003 24.2735 11.9286C24.4945 11.5569 24.6062 11.1303 24.5937 10.698V10.696C24.5866 10.4828 24.6625 10.2746 24.8052 10.1159C24.9489 9.95639 25.1489 9.85835 25.3631 9.84399ZM25.4054 10.4623C25.3517 10.4659 25.3004 10.4908 25.2644 10.5308C25.2468 10.5505 25.233 10.5729 25.2241 10.5973L25.2121 10.6758V10.6799C25.228 11.2296 25.0862 11.7722 24.8052 12.2449C24.5249 12.7163 24.1158 13.096 23.6269 13.3446L23.6289 13.3466C23.588 13.3682 23.5555 13.4032 23.5363 13.4453C23.5171 13.4874 23.5116 13.5352 23.5222 13.5803C23.5328 13.6253 23.5587 13.6659 23.5947 13.6951C23.6295 13.7232 23.6729 13.7374 23.7176 13.7394C23.7485 13.7392 23.7785 13.733 23.8062 13.7192C24.3734 13.4332 24.8477 12.9898 25.1698 12.4423C25.4898 11.8976 25.6466 11.2727 25.6229 10.6416C25.6163 10.5908 25.5916 10.544 25.5525 10.5107C25.5116 10.476 25.4589 10.459 25.4054 10.4623Z" fill="white"/>
<path d="M22.0788 17.5448C21.6334 17.8006 21.2616 18.1672 20.9996 18.609C20.7376 19.0508 20.5943 19.5528 20.5835 20.0664C20.2019 19.9782 19.8095 19.9459 19.4186 19.9705C19.2847 19.9859 19.1621 20.0531 19.0771 20.1578C18.9921 20.2624 18.9514 20.3962 18.9638 20.5305C18.9762 20.6647 19.0406 20.7888 19.1433 20.8761C19.246 20.9635 19.3788 21.0072 19.5133 20.9978C19.9067 20.9717 20.301 21.0318 20.6686 21.1741C21.0362 21.3164 21.3683 21.5373 21.6415 21.8214C21.729 21.9244 21.8533 21.989 21.9879 22.0014C22.1224 22.0137 22.2564 21.9727 22.3611 21.8872C22.4657 21.8018 22.5327 21.6787 22.5475 21.5444C22.5623 21.4101 22.5239 21.2753 22.4404 21.1691C22.2059 20.8832 21.921 20.6427 21.5999 20.4594C21.5975 19.9684 21.6968 18.9067 22.5553 18.4596C22.6738 18.3948 22.7622 18.2862 22.8015 18.157C22.8408 18.0278 22.8278 17.8884 22.7654 17.7686C22.7031 17.6488 22.5962 17.5583 22.4678 17.5165C22.3394 17.4746 22.1997 17.4848 22.0788 17.5448Z" fill="white"/>
<path d="M22.0916 17.2111C22.2455 17.1692 22.409 17.1731 22.5629 17.2231C22.7683 17.2901 22.9405 17.4344 23.0403 17.626C23.1398 17.8173 23.1593 18.0399 23.0967 18.2463C23.0338 18.453 22.8935 18.6282 22.7039 18.7317L22.6979 18.7338C22.3604 18.9096 22.1624 19.2094 22.0473 19.5435C21.9566 19.8067 21.9283 20.0782 21.9184 20.2927C22.1199 20.4238 22.3077 20.5749 22.4763 20.7459L22.6797 20.9735L22.6838 20.9775C22.8172 21.1474 22.8786 21.3631 22.855 21.5778C22.8312 21.7926 22.7243 21.9909 22.5569 22.1276C22.3895 22.2642 22.1738 22.3286 21.9587 22.3089C21.7501 22.2896 21.5577 22.1912 21.4189 22.035L21.2275 21.8577C21.0275 21.6907 20.8009 21.5574 20.5568 21.4629C20.2312 21.337 19.8819 21.2827 19.5336 21.3058C19.3192 21.3205 19.1074 21.2516 18.9435 21.1125C18.7792 20.9728 18.6752 20.7733 18.6554 20.5586C18.6357 20.3439 18.7008 20.1297 18.8367 19.9624C18.9726 19.7952 19.1686 19.6871 19.3826 19.6623L19.3987 19.6603C19.7014 19.6412 20.0056 19.6546 20.305 19.6985C20.3631 19.2593 20.5068 18.835 20.7341 18.4518C21.0232 17.9641 21.4328 17.5579 21.9244 17.2755L21.9405 17.2675L22.0916 17.2111ZM22.2225 17.8193C21.8282 18.0482 21.4985 18.3738 21.2658 18.766C21.031 19.1619 20.9029 19.613 20.8932 20.0732L20.8851 20.4539L20.5145 20.3672C20.1664 20.2868 19.8077 20.2554 19.451 20.2766L19.4531 20.2786C19.3999 20.285 19.3519 20.3116 19.3181 20.3531C19.2841 20.395 19.2668 20.4484 19.2718 20.5022C19.2768 20.5559 19.3032 20.6062 19.3443 20.6412C19.3853 20.6757 19.4398 20.6932 19.4933 20.6895C19.9315 20.6605 20.3709 20.7264 20.7804 20.8849C21.1898 21.0433 21.5596 21.2897 21.864 21.606L21.8781 21.6201V21.6221C21.9128 21.6625 21.962 21.6874 22.0151 21.6926C22.0689 21.6975 22.1242 21.6824 22.1661 21.6483C22.2077 21.6142 22.2345 21.5646 22.2406 21.5113C22.2466 21.4575 22.2297 21.4027 22.1963 21.3602V21.3582C21.9869 21.1045 21.7328 20.8909 21.4471 20.7278L21.292 20.6392L21.29 20.4599C21.2887 20.1965 21.3157 19.77 21.4632 19.342C21.6112 18.9127 21.8891 18.4595 22.4058 18.1879C22.4531 18.1621 22.4887 18.1186 22.5045 18.0671C22.5202 18.0154 22.5153 17.9599 22.4904 17.912C22.4654 17.8641 22.423 17.828 22.3716 17.8113C22.3224 17.7953 22.2694 17.7979 22.2225 17.8193Z" fill="white"/>
<path d="M22.7981 14.3757C22.8935 11.5116 19.4625 9.52863 17.0428 11.0506L17.0476 6.11109C17.0457 5.97564 16.9905 5.84638 16.8941 5.75123C16.7977 5.65608 16.6677 5.60267 16.5322 5.60254C16.3968 5.60241 16.2667 5.65557 16.1701 5.75054C16.0735 5.84551 16.0181 5.97466 16.016 6.11011L16.0114 10.9227C13.6004 9.55176 10.3152 11.4968 10.3935 14.3259C10.3928 15.3365 10.7885 16.3071 11.4956 17.0293L16.0047 21.6244L15.9993 26.8531C15.9996 26.9896 16.054 27.1205 16.1506 27.217C16.2472 27.3135 16.3781 27.3677 16.5146 27.3679C16.6512 27.368 16.7822 27.314 16.879 27.2177C16.9758 27.1214 17.0304 26.9907 17.031 26.8541L17.0363 21.6416L21.6435 17.1207C22.0107 16.7643 22.3022 16.3375 22.5006 15.8659C22.699 15.3942 22.8002 14.8873 22.7981 14.3757ZM16.5331 20.6901L12.2733 16.349C12.0086 16.091 11.7974 15.7834 11.6517 15.4438C11.506 15.1042 11.4286 14.7391 11.424 14.3696C11.4195 14 11.4878 13.6332 11.6251 13.2901C11.7624 12.947 11.9659 12.6342 12.2242 12.3698C12.4824 12.1054 12.7902 11.8945 13.1299 11.7491C13.4697 11.6037 13.8348 11.5267 14.2044 11.5225C14.5739 11.5183 14.9407 11.587 15.2837 11.7246C15.6267 11.8623 15.9392 12.0661 16.2034 12.3246C16.2803 12.4151 16.3852 12.4773 16.5015 12.5014C16.6177 12.5256 16.7387 12.5102 16.8453 12.4578C17.2348 12.0455 17.7385 11.7587 18.2919 11.6343C18.8453 11.5099 19.4233 11.5535 19.9518 11.7595C20.4803 11.9655 20.9353 12.3245 21.2586 12.7905C21.5818 13.2566 21.7587 13.8086 21.7664 14.3757C21.7677 14.7512 21.6931 15.1231 21.5471 15.469C21.401 15.8149 21.1866 16.1278 20.9166 16.3888L16.5331 20.6901Z" fill="white"/>
<path d="M16.5333 5.29236C16.7494 5.29275 16.9573 5.37832 17.1113 5.53003C17.2654 5.6821 17.3538 5.88962 17.357 6.10608L17.353 10.5352C18.5691 9.99513 19.934 10.1743 21.0188 10.8011C22.2441 11.5093 23.1547 12.8136 23.1075 14.3742L23.0873 14.7871C23.0475 15.1988 22.9462 15.6028 22.7852 15.9855C22.571 16.4948 22.257 16.956 21.8607 17.3411L17.3429 21.7702L17.3409 26.8539C17.3399 27.0719 17.2516 27.2822 17.0972 27.436C16.9426 27.5899 16.7333 27.6777 16.5151 27.6777C16.2967 27.6775 16.0855 27.5904 15.931 27.436C15.7768 27.2817 15.6898 27.0721 15.6893 26.8539L15.6933 21.7501L11.2743 17.2464C10.6061 16.5639 10.1959 15.6753 10.1041 14.7327L10.0839 14.3259C10.0446 12.7857 10.92 11.4999 12.1102 10.785C13.1647 10.1515 14.4952 9.94867 15.7014 10.4305L15.7074 6.11011V6.10608C15.7109 5.88943 15.7987 5.68195 15.9532 5.53003C16.1077 5.37811 16.3165 5.29215 16.5333 5.29236ZM16.5312 5.91272C16.4773 5.91285 16.4247 5.93328 16.3862 5.97113C16.348 6.00889 16.3269 6.06044 16.3258 6.11414L16.3198 10.924V11.4537L15.8585 11.1918C14.7663 10.5708 13.4626 10.6935 12.4284 11.3147C11.3949 11.9355 10.6667 13.0327 10.7023 14.3178V14.3259C10.7017 15.2555 11.067 16.1491 11.7174 16.8134L16.2251 21.4077L16.3137 21.4983L16.3097 26.8539C16.3102 26.9081 16.3318 26.9607 16.3701 26.999C16.4087 27.0371 16.4609 27.0593 16.5151 27.0594C16.5694 27.0594 16.6215 27.0371 16.6601 26.999C16.6986 26.9607 16.7221 26.9082 16.7226 26.8539L16.7266 21.5124L16.8193 21.4218L21.4277 16.9C21.7649 16.5726 22.033 16.1791 22.2152 15.7458C22.3974 15.3125 22.4911 14.8463 22.4891 14.3762V14.3661C22.5324 13.0681 21.7765 11.9539 20.7086 11.3369C19.6408 10.7199 18.3034 10.6238 17.208 11.3127L16.7327 11.6108V11.0508L16.7387 6.11615L16.7226 6.0376C16.7121 6.01294 16.6957 5.9903 16.6763 5.97113C16.6377 5.9333 16.5853 5.91277 16.5312 5.91272ZM14.2009 11.214C14.6111 11.2093 15.0186 11.2848 15.3993 11.4376C15.6851 11.5523 15.9516 11.7087 16.1908 11.9008L16.4205 12.1042L16.4406 12.1224L16.4386 12.1244C16.4708 12.1622 16.5149 12.1887 16.5635 12.1989C16.6012 12.2068 16.6398 12.2004 16.6763 12.1888C17.0997 11.7626 17.6359 11.465 18.2231 11.3328C18.8366 11.1949 19.4782 11.2435 20.0641 11.4718C20.6497 11.7001 21.1539 12.0974 21.5123 12.6138C21.8706 13.1305 22.0676 13.7435 22.0762 14.3722C22.0776 14.7891 21.9946 15.2046 21.8325 15.5887C21.6706 15.9724 21.4307 16.3183 21.1316 16.6079L16.7488 20.9102L16.5292 21.1277L12.0517 16.5656C11.7611 16.2807 11.5275 15.9407 11.3669 15.5666C11.2053 15.1898 11.1203 14.7841 11.1152 14.3742C11.1101 13.9641 11.1864 13.5566 11.3387 13.1758C11.4911 12.795 11.7169 12.4481 12.0034 12.1546C12.29 11.8611 12.6313 11.6251 13.0085 11.4637C13.3855 11.3025 13.7909 11.2187 14.2009 11.214ZM14.2069 11.8323C13.8785 11.8362 13.5542 11.9046 13.2522 12.0338C12.9498 12.1631 12.6743 12.3503 12.4445 12.5856C12.2148 12.8209 12.0349 13.1001 11.9128 13.4054C11.7906 13.7107 11.7294 14.0373 11.7335 14.3661C11.7376 14.6948 11.8074 15.0188 11.9369 15.3209C12.0665 15.6229 12.2536 15.8971 12.4888 16.1265L12.4949 16.1326L16.5373 20.2515L20.7006 16.1688L20.7026 16.1668C20.9424 15.9349 21.1327 15.6564 21.2625 15.3491C21.3919 15.0426 21.4585 14.7129 21.4579 14.3802L21.4236 14.0036C21.3628 13.6327 21.2207 13.2777 21.0047 12.9663C20.7165 12.5509 20.3095 12.2314 19.8385 12.0479C19.3676 11.8645 18.8531 11.8263 18.3601 11.9371C17.867 12.0479 17.4182 12.3029 17.071 12.6702L17.0328 12.7105L16.9824 12.7347C16.8141 12.8174 16.6222 12.8432 16.4386 12.8052C16.2642 12.769 16.107 12.6768 15.9874 12.5453L15.8021 12.3822C15.6105 12.2286 15.3964 12.1034 15.1677 12.0116C14.8626 11.8893 14.5355 11.8286 14.2069 11.8323Z" fill="white"/>
</svg>
