<svg width="33" height="33" viewBox="0 0 33 33" fill="none" xmlns="http://www.w3.org/2000/svg">
<path d="M5.38168 28.6416C5.08745 27.6713 5.01615 26.7147 5.22332 25.7513C5.45794 24.66 6.12004 23.9757 7.22656 23.7457C7.51963 23.6849 7.8162 23.6388 8.10576 23.5643C8.98583 23.3372 9.51528 22.7844 9.64939 21.8722C9.72594 21.3524 9.77415 20.8349 9.41856 20.3888C9.33324 20.2815 9.20147 20.1758 9.07261 20.1451C8.30415 19.9619 7.53132 19.8371 6.73013 19.888C6.2752 19.9169 5.80214 19.8766 5.35567 19.7816C4.57524 19.6156 4.06215 19.1145 3.83746 18.342C3.7425 18.0159 3.67793 17.6811 3.59144 17.3523C3.31503 16.304 2.65088 15.8441 1.56803 15.9653C1.24458 16.0016 0.925803 16.0793 0.60498 16.1386C0.396357 16.1772 0.187731 16.1947 0.0574152 15.984C-0.0612135 15.7921 0.0223529 15.61 0.141858 15.4552C0.747858 14.6709 1.44473 13.989 2.36805 13.5857C3.25046 13.2003 4.09342 13.2757 4.8721 13.8607C5.12222 14.0486 5.35743 14.2557 5.60433 14.4477C6.6568 15.2658 7.63533 15.0026 8.52096 14.2394C8.69715 14.0874 8.69978 13.927 8.57326 13.7368C8.18085 13.1466 7.77032 12.578 7.23036 12.1035C6.89639 11.8101 6.58316 11.4753 6.331 11.1106C5.84071 10.4012 5.80886 9.63855 6.23283 8.87565C6.40463 8.56681 6.60361 8.27287 6.77513 7.96402C7.22977 7.14502 7.12371 6.43295 6.43473 5.79247C6.20741 5.58122 5.93859 5.4138 5.68614 5.23031C5.57628 5.15054 5.45035 5.09064 5.34779 5.00298C5.05618 4.75345 5.10994 4.44344 5.46466 4.31196C5.5529 4.27923 5.64874 4.25819 5.74253 4.24972C6.4768 4.1831 7.2102 4.1679 7.936 4.3286C9.31367 4.63365 10.0164 5.4325 10.1487 6.83705C10.1704 7.0673 10.1882 7.2987 10.2273 7.52632C10.4298 8.70647 11.2106 9.17047 12.2706 9.28588C12.4503 9.30546 12.5476 9.23709 12.5798 9.05038C12.6975 8.3649 12.7714 7.68177 12.7086 6.98081C12.6665 6.51155 12.6665 6.02681 12.7349 5.56193C12.8562 4.73621 13.3555 4.18953 14.15 3.92743C14.4726 3.82108 14.8051 3.74511 15.1294 3.64314C16.0755 3.34481 16.4802 2.77007 16.4101 1.77867C16.3864 1.44266 16.2891 1.11161 16.2245 0.778511C16.1988 0.645273 16.1494 0.513208 16.1471 0.37997C16.1418 0.0831064 16.3604 -0.068539 16.6385 0.0299286C16.7271 0.0611928 16.813 0.109397 16.889 0.164913C17.542 0.64118 18.1305 1.18319 18.5705 1.86896C19.2624 2.94772 19.2326 3.94321 18.4811 4.9761C18.3449 5.1631 18.1977 5.34192 18.0647 5.53097C17.4269 6.43704 17.4833 7.39075 18.2044 8.22582C18.3537 8.3988 18.465 8.41224 18.6406 8.26819C19.1575 7.84393 19.6408 7.39425 20.044 6.85283C20.3178 6.48554 20.6296 6.1317 20.9811 5.84039C21.6341 5.29867 22.3806 5.21365 23.1622 5.56193C23.4977 5.71124 23.8208 5.88831 24.1586 6.03207C24.9697 6.37714 25.6415 6.21761 26.2001 5.5336C26.3877 5.30394 26.5297 5.036 26.6846 4.78063C26.7617 4.65294 26.7971 4.49282 26.8938 4.38617C27.0037 4.26521 27.153 4.12525 27.2996 4.10655C27.5194 4.0782 27.607 4.28917 27.6707 4.47588C27.6795 4.50159 27.6871 4.52788 27.6929 4.55447C27.8758 5.39919 27.9544 6.24975 27.7894 7.10615C27.5685 8.2527 26.9028 8.97558 25.7426 9.2143C25.4495 9.27449 25.1523 9.31978 24.864 9.39838C24.0227 9.62716 23.4769 10.1557 23.3732 11.0373C23.3218 11.4755 23.3545 11.9293 23.3972 12.3714C23.4255 12.6633 23.6216 12.8208 23.9401 12.883C24.7982 13.0504 25.6514 13.1746 26.5324 13.0949C26.8774 13.0636 27.2403 13.122 27.5831 13.196C28.3983 13.3716 28.9289 13.8765 29.1577 14.6823C29.2541 15.0224 29.3219 15.3704 29.4163 15.7111C29.6708 16.6286 30.2648 17.0739 31.2161 17.0289C31.5668 17.0122 31.9136 16.9228 32.2625 16.8688C32.396 16.848 32.5327 16.8092 32.6642 16.8217C32.9138 16.8454 33.0406 17.0543 32.9637 17.2936C32.9351 17.3824 32.8872 17.4701 32.8296 17.544C32.2996 18.2272 31.6933 18.8285 30.9283 19.2478C29.8899 19.817 28.8973 19.7649 27.9653 19.0047C27.7648 18.8413 27.569 18.6722 27.3633 18.5158C26.2726 17.6869 25.2669 18.0296 24.3886 18.8297C24.2615 18.9454 24.279 19.0555 24.3661 19.1879C24.7707 19.8026 25.1965 20.3943 25.751 20.8925C26.102 21.2078 26.4359 21.5599 26.7033 21.9467C27.1755 22.6304 27.1971 23.372 26.7991 24.1086C26.6311 24.4195 26.4327 24.7138 26.2595 25.022C25.7832 25.8685 25.8992 26.6115 26.6226 27.257C26.8447 27.4551 27.1015 27.614 27.3449 27.7876C27.4446 27.8586 27.5749 27.9012 27.6471 27.9918C27.7411 28.1099 27.8618 28.2758 27.8399 28.3977C27.8183 28.5186 27.6462 28.6825 27.5191 28.7039C26.3302 28.9046 25.1562 28.892 24.066 28.286C23.4311 27.9331 23.0743 27.3674 22.9522 26.6586C22.8876 26.2837 22.8622 25.9024 22.8031 25.5263C22.6121 24.3064 21.7729 23.8302 20.6994 23.7405C20.4969 23.7235 20.3967 23.8085 20.3666 24.0052C20.2699 24.6372 20.1828 25.2645 20.2307 25.912C20.2705 26.4496 20.2746 27.0036 20.1895 27.5334C20.0656 28.3056 19.5742 28.821 18.8268 29.0691C18.4656 29.1889 18.0937 29.2763 17.7319 29.3946C16.8776 29.6745 16.4702 30.2487 16.5182 31.148C16.536 31.4844 16.6263 31.8174 16.6882 32.1508C16.7131 32.2844 16.7654 32.4138 16.7788 32.5479C16.8156 32.9082 16.5766 33.087 16.2415 32.9584C16.1909 32.9392 16.141 32.9143 16.0971 32.8828C15.3053 32.3118 14.5994 31.6582 14.1558 30.7705C13.7099 29.8782 13.7587 29.0101 14.3387 28.1867C14.5187 27.931 14.7177 27.6885 14.8962 27.4317C15.518 26.5382 15.4546 25.5859 14.7393 24.7722C14.5999 24.6135 14.4837 24.5872 14.3355 24.736C13.8858 25.1868 13.4321 25.6341 12.9888 26.0914C12.6496 26.4415 12.3574 26.8456 11.984 27.1521C11.3546 27.6681 10.6279 27.7496 9.87379 27.4238C9.5369 27.2783 9.21315 27.1021 8.87801 26.9528C8.01313 26.568 7.27945 26.7483 6.7202 27.5158C6.48177 27.8434 6.30938 28.2188 6.10222 28.5698C5.89506 28.9183 5.70922 28.9426 5.38168 28.6416ZM17.4649 23.2925C17.5183 23.282 17.5715 23.2712 17.625 23.2613C21.308 22.5887 23.8314 19.1931 23.3238 15.4838C22.9504 12.7527 21.4462 10.8102 18.8653 9.82176C16.2587 8.82335 13.859 9.38084 11.7219 11.101C10.7019 11.9217 10.0623 13.0136 9.67627 14.2747C8.86808 16.9152 9.44895 19.2375 11.3064 21.2122C12.945 22.9542 15.0277 23.585 17.4649 23.2925Z" fill="white"/>
</svg>
